<svg width="24" height="23" viewBox="0 0 24 23" fill="none" xmlns="http://www.w3.org/2000/svg">
<path d="M23.9603 6.65396C23.61 2.79802 20.8808 0.000461589 17.4652 0.000461589C15.1896 0.000461589 13.1061 1.225 11.9337 3.18759C10.772 1.19961 8.77383 0 6.53477 0C3.11963 0 0.389915 2.79756 0.0400471 6.6535C0.0123531 6.82382 -0.101193 7.72018 0.24406 9.18197C0.74163 11.2904 1.89093 13.2082 3.56689 14.7268L11.9282 22.3145L20.433 14.7272C22.109 13.2082 23.2583 11.2909 23.7559 9.18197C24.1011 7.72064 23.9876 6.82428 23.9603 6.65396ZM22.8572 8.97057C22.403 10.8962 21.3502 12.6506 19.8155 14.0409L11.9337 21.0729L4.18723 14.0427C2.64975 12.6497 1.59738 10.8958 1.14273 8.97011C0.815942 7.58679 0.950259 6.80535 0.95072 6.80028L0.957644 6.75366C1.25766 3.37544 3.60289 0.923135 6.53477 0.923135C8.69813 0.923135 10.6026 2.25245 11.5063 4.39182L11.9314 5.39942L12.3565 4.39182C13.246 2.28522 15.251 0.923597 17.4656 0.923597C20.397 0.923597 22.7427 3.37591 23.0487 6.79797C23.0497 6.80535 23.184 7.58725 22.8572 8.97057Z" fill="#4F4F4F"/>
</svg>
