<svg width="25" height="23" viewBox="0 0 25 23" fill="none" xmlns="http://www.w3.org/2000/svg">
<path d="M24.9591 6.85837C24.598 2.88398 21.7849 0.000475769 18.2644 0.000475769C15.9189 0.000475769 13.7714 1.26263 12.563 3.28551C11.3656 1.23647 9.30606 0 6.99821 0C3.47816 0 0.664589 2.8835 0.303973 6.8579C0.275428 7.03345 0.158394 7.95735 0.514253 9.46404C1.02711 11.6373 2.21172 13.614 3.93916 15.1792L12.5573 23L21.3234 15.1797C23.0509 13.614 24.2355 11.6377 24.7483 9.46404C25.1042 7.95782 24.9872 7.03392 24.9591 6.85837ZM23.454 9.27654C22.9859 11.2614 22.2687 13.0393 20.6869 14.4722L12.563 21.7202L4.57856 14.4741C2.99385 13.0383 2.2774 9.71526 1.80878 7.73045C1.47196 6.30463 1.80878 8.50349 1.24262 7.00918V7.87172C1.55186 4.38973 0.332927 13.9148 3.35487 13.9148C5.5847 13.9148 3.19641 12.4828 4.12792 14.6878L12.563 21.7202L19.5888 16.2339L23.454 11.5957L24.2271 6.18436C25.1438 4.01305 19.5888 2.31913 18.2649 0.95197C18.2644 6.50758 23.7041 3.47962 24.0195 7.0068C24.0205 7.01442 23.7909 7.85072 23.454 9.27654Z" fill="#D64F3C"/>
</svg>
